<?xml version="1.0" encoding="UTF-8" standalone="no"?>
<svg
   xmlns:dc="http://purl.org/dc/elements/1.1/"
   xmlns:cc="http://creativecommons.org/ns#"
   xmlns:rdf="http://www.w3.org/1999/02/22-rdf-syntax-ns#"
   xmlns:svg="http://www.w3.org/2000/svg"
   xmlns="http://www.w3.org/2000/svg"
   enable-background="new"
   version="1.1"
   id="svg3336"
   viewBox="0 0 320 320.00001"
   height="320"
   width="320">
  <defs
     id="defs3338" />
  <metadata
     id="metadata3341">
    <rdf:RDF>
      <cc:Work
         rdf:about="">
        <dc:format>image/svg+xml</dc:format>
        <dc:type
           rdf:resource="http://purl.org/dc/dcmitype/StillImage" />
        <dc:title />
      </cc:Work>
    </rdf:RDF>
  </metadata>
  <g
     transform="translate(0,-732.36216)"
     id="layer1">
    <g
       id="text4251"
       style="font-style:normal;font-variant:normal;font-weight:bold;font-stretch:normal;line-height:0%;font-family:sans-serif;-inkscape-font-specification:'sans-serif, Bold';text-align:start;letter-spacing:0px;word-spacing:0px;writing-mode:lr-tb;text-anchor:start;fill:#ffffff;fill-opacity:1;stroke:none;stroke-width:1px;stroke-linecap:butt;stroke-linejoin:miter;stroke-opacity:0.37724556"
       aria-label="@">
      <path
         id="path67"
         style="font-size:30px;line-height:1.25"
         d="m 13.267578,780.58972 q 0,1.80176 0.761719,2.8418 0.776367,1.04004 2.094726,1.04004 1.303711,0 2.080079,-1.04004 0.776367,-1.05469 0.776367,-2.8418 0,-1.77246 -0.791016,-2.79785 -0.776367,-1.04004 -2.094726,-1.04004 -1.289063,0 -2.06543,1.04004 -0.761719,1.02539 -0.761719,2.79785 z m 6.005859,4.40918 q -0.439453,1.04004 -1.420898,1.62598 -0.966797,0.57129 -2.270508,0.57129 -2.519531,0 -4.101562,-1.81641 -1.5673831,-1.83105 -1.5673831,-4.76074 0,-2.92969 1.5820311,-4.76074 1.582031,-1.83106 4.086914,-1.83106 1.303711,0 2.270508,0.58594 0.981445,0.58594 1.420898,1.62598 v -1.91895 h 3.061524 v 10.15137 q 1.816406,-0.27832 2.856445,-1.74317 1.040039,-1.47949 1.040039,-3.77929 0,-1.46485 -0.424804,-2.73926 -0.424805,-1.28906 -1.289063,-2.3584 -1.391601,-1.78711 -3.486328,-2.75391 -2.080078,-0.96679 -4.511719,-0.96679 -1.699218,0 -3.251953,0.4541 -1.552734,0.43945 -2.871094,1.30371 -2.1679684,1.43555 -3.3837887,3.7207 -1.2011719,2.27051 -1.2011719,4.92188 0,2.18262 0.7763672,4.10156 0.7910156,1.9043 2.2705078,3.36914 1.4648436,1.43555 3.3544926,2.18262 1.904297,0.76172 4.057617,0.76172 1.845703,0 3.691406,-0.68848 1.845703,-0.68848 3.149414,-1.86035 l 1.567383,2.37305 q -1.831055,1.42089 -3.999024,2.16796 -2.15332,0.76172 -4.379882,0.76172 -2.709961,0 -5.112305,-0.96679 -2.4023437,-0.95215 -4.2773438,-2.78321 -1.875,-1.83105 -2.8564453,-4.2334 -0.9814453,-2.41699 -0.9814453,-5.18554 0,-2.66602 0.9960938,-5.08301 0.9960937,-2.41699 2.8417968,-4.24805 1.8457032,-1.8164 4.2919918,-2.8125 2.460938,-0.99609 5.097657,-0.99609 3.28125,0 5.961914,1.25977 2.680664,1.24511 4.482422,3.60351 1.098632,1.43555 1.655273,3.12012 0.571289,1.66992 0.571289,3.51562 0,3.96973 -2.387695,6.167 -2.387696,2.19726 -6.738281,2.19726 h -0.57129 z" />
    </g>
    <path
       id="rect3346-1-7"
       d="m 0,796.36218 h 32 v 32 H 0 Z"
       style="fill:#000000;fill-opacity:1" />
    <g
       id="text4251-0"
       style="font-style:normal;font-variant:normal;font-weight:bold;font-stretch:normal;line-height:0%;font-family:sans-serif;-inkscape-font-specification:'sans-serif, Bold';text-align:start;letter-spacing:0px;word-spacing:0px;writing-mode:lr-tb;text-anchor:start;fill:#ffffff;fill-opacity:1;stroke:#000000;stroke-width:1px;stroke-linecap:butt;stroke-linejoin:miter;stroke-opacity:0.37724556"
       aria-label=" " />
    <g
       id="text4251-7"
       style="font-style:normal;font-variant:normal;font-weight:bold;font-stretch:normal;line-height:0%;font-family:sans-serif;-inkscape-font-specification:'sans-serif, Bold';text-align:start;letter-spacing:0px;word-spacing:0px;writing-mode:lr-tb;text-anchor:start;fill:#47bc49;fill-opacity:1;stroke:none;stroke-width:1px;stroke-linecap:butt;stroke-linejoin:miter;stroke-opacity:0.37724556"
       aria-label="♣">
      <path
         id="path72"
         style="font-size:40px;line-height:1.25"
         d="m 47.5625,765.22156 q 4.179687,0 6.152344,4.43359 0.253906,1.01563 0.3125,2.10938 0,2.28515 -2.34375,5.41015 l -1.171875,1.17188 h 0.05859 q 1.445313,-0.54688 3.085938,-0.54688 h 0.371094 q 4.648437,0 6.523437,3.94532 Q 61,783.03406 61,784.20593 q 0,4.00391 -4.082031,6.03516 -0.78125,0.23437 -2.167969,0.35156 -4.726563,0 -6.699219,-5.35156 h -0.05859 v 0.17578 q 0,6.69922 1.601563,8.82813 v 0.11718 h -4.0625 L 45.414062,794.245 q 1.660157,-2.5 1.660157,-9.00391 v -0.0586 h -0.05859 q -1.953125,5.41015 -6.738281,5.41015 -3.730469,0 -5.722657,-3.92578 -0.488281,-1.32812 -0.488281,-2.46094 0,-4.55078 4.804688,-6.17187 1.289062,-0.23438 2.285156,-0.23438 h 0.175781 q 1.679688,0 3.203125,0.54688 h 0.05859 v -0.0586 q -1.640625,-1.38671 -2.207031,-2.73437 -1.171875,-2.14844 -1.171875,-3.73047 v -0.27344 q 0,-3.92578 4.199218,-5.95703 1.386719,-0.37109 2.148438,-0.37109 z" />
    </g>
    <g
       id="text4251-7-5"
       style="font-style:normal;font-variant:normal;font-weight:bold;font-stretch:normal;line-height:0%;font-family:sans-serif;-inkscape-font-specification:'sans-serif, Bold';text-align:start;letter-spacing:0px;word-spacing:0px;writing-mode:lr-tb;text-anchor:start;fill:#7daf7e;fill-opacity:1;stroke:none;stroke-width:1px;stroke-linecap:butt;stroke-linejoin:miter;stroke-opacity:0.37724556"
       aria-label="♠">
      <path
         id="path75"
         style="font-size:40px;line-height:1.25"
         d="m 79.660156,765.22156 q 1.835938,3.26172 6.054688,8.65234 4.628906,5.42969 4.746093,6.54297 0.761719,1.66016 0.761719,3.22266 v 0.78125 q 0,3.26172 -3.164062,5.13672 -1.035157,0.42968 -2.285157,0.42968 -3.007812,0 -4.863281,-4.3164 h -0.820312 v 0.23437 q 0,5.52735 1.621093,8.45703 H 77.511719 V 794.245 q 1.660156,-2.94922 1.660156,-8.51563 l -0.05859,-0.0586 h -0.742187 l -0.917969,1.71875 q -1.660156,2.59765 -4.140625,2.59765 -3.652344,0 -5.136719,-4.08203 L 68,784.47937 v -0.89844 q 0,-3.57422 3.652344,-7.53906 6.152343,-7.53906 7.890625,-10.76172 l 0.05859,-0.0586 z" />
    </g>
    <path
       id="path4815"
       d="m 84,812.36218 a 4,4.0000038 0 0 1 -4,4.00001 4,4.0000038 0 0 1 -4,-4.00001 4,4.0000038 0 0 1 4,-4 4,4.0000038 0 0 1 4,4 z"
       style="fill:#1f5520;fill-opacity:1;fill-rule:evenodd;stroke:none;stroke-opacity:0.37724556" />
    <path
       id="path4815-0"
       d="m 116,812.36218 a 4,4.0000038 0 0 1 -4,4.00001 4,4.0000038 0 0 1 -4,-4.00001 4,4.0000038 0 0 1 4,-4 4,4.0000038 0 0 1 4,4 z"
       style="fill:#6e6e6e;fill-opacity:1;fill-rule:evenodd;stroke:none;stroke-opacity:0.37724556" />
    <path
       id="path4835"
       d="m 33,804.36217 v 16 l 7,7 h 16 l 7,-6 v -17 l -7,-7 H 40 Z"
       style="fill:#646464;fill-opacity:1;fill-rule:evenodd;stroke:none;stroke-width:1px;stroke-linecap:butt;stroke-linejoin:miter;stroke-opacity:1" />
    <path
       id="rect4852"
       d="m 1,829.36218 h 30 v 5.99999 H 1 Z"
       style="fill:#512f15;fill-opacity:1;fill-rule:evenodd;stroke:none;stroke-opacity:0.37724556" />
    <path
       id="rect4852-1"
       d="m 1,837.36218 h 30 v 5.99999 H 1 Z"
       style="fill:#512f15;fill-opacity:1;fill-rule:evenodd;stroke:none;stroke-opacity:0.37724556" />
    <path
       id="rect4852-0"
       d="m 1,845.36218 h 30 v 5.99999 H 1 Z"
       style="fill:#512f15;fill-opacity:1;fill-rule:evenodd;stroke:none;stroke-opacity:0.37724556" />
    <path
       id="rect4852-12"
       d="m 1,853.36218 h 30 v 5.99999 H 1 Z"
       style="fill:#512f15;fill-opacity:1;fill-rule:evenodd;stroke:none;stroke-opacity:0.37724556" />
    <path
       id="path4992"
       d="m 146,758.36217 8,-8 v -3 h -3 l -5,5 v -9 l -2,-2 -2,2 v 9 l -5,-5 h -3 v 3 l 8,8"
       style="fill:#1f5520;fill-opacity:1;fill-rule:evenodd;stroke:none;stroke-width:1px;stroke-linecap:butt;stroke-linejoin:miter;stroke-opacity:1" />
    <path
       id="path5098"
       d="m 98,834.36217 c 0,0 4.5733,-2 7,-2 2.4267,0 7,2 7,2 0,0 4.5733,2 7,2 2.4267,0 7,-2 7,-2 v 4 c 0,0 -4.5733,2 -7,2 -2.4267,0 -7,-2 -7,-2 0,0 -4.5733,-2 -7,-2 -2.4267,0 -7,2 -7,2 z"
       style="fill:#0e3061;fill-opacity:1;fill-rule:evenodd;stroke:none;stroke-width:1px;stroke-linecap:butt;stroke-linejoin:miter;stroke-opacity:1" />
    <path
       id="path5098-6"
       d="m 98,842.36217 c 0,0 4.5733,-2 7,-2 2.4267,0 7,2 7,2 0,0 4.5733,2 7,2 2.4267,0 7,-2 7,-2 v 4 c 0,0 -4.5733,2 -7,2 -2.4267,0 -7,-2 -7,-2 0,0 -4.5733,-2 -7,-2 -2.4267,0 -7,2 -7,2 z"
       style="fill:#1856b0;fill-opacity:1;fill-rule:evenodd;stroke:none;stroke-width:1px;stroke-linecap:butt;stroke-linejoin:miter;stroke-opacity:1" />
    <path
       id="path5098-7"
       d="m 98,850.36217 c 0,0 4.5733,-2 7,-2 2.4267,0 7,2 7,2 0,0 4.5733,2 7,2 2.4267,0 7,-2 7,-2 v 4 c 0,0 -4.5733,2 -7,2 -2.4267,0 -7,-2 -7,-2 0,0 -4.5733,-2 -7,-2 -2.4267,0 -7,2 -7,2 z"
       style="fill:#0e3061;fill-opacity:1;fill-rule:evenodd;stroke:none;stroke-width:1px;stroke-linecap:butt;stroke-linejoin:miter;stroke-opacity:1" />
    <path
       id="path5098-8"
       d="m 130,839.36217 c 0,0 4.5733,-2 7,-2 2.4267,0 7,2 7,2 0,0 4.5733,2 7,2 2.4267,0 7,-2 7,-2 v 4 c 0,0 -4.5733,2 -7,2 -2.4267,0 -7,-2 -7,-2 0,0 -4.5733,-2 -7,-2 -2.4267,0 -7,2 -7,2 z"
       style="fill:#0e3061;fill-opacity:1;fill-rule:evenodd;stroke:none;stroke-width:1px;stroke-linecap:butt;stroke-linejoin:miter;stroke-opacity:1" />
    <path
       id="path5098-8-4"
       d="m 130,847.36217 c 0,0 4.5733,-2 7,-2 2.4267,0 7,2 7,2 0,0 4.5733,2 7,2 2.4267,0 7,-2 7,-2 v 4 c 0,0 -4.5733,2 -7,2 -2.4267,0 -7,-2 -7,-2 0,0 -4.5733,-2 -7,-2 -2.4267,0 -7,2 -7,2 z"
       style="fill:#0e3061;fill-opacity:1;fill-rule:evenodd;stroke:none;stroke-width:1px;stroke-linecap:butt;stroke-linejoin:miter;stroke-opacity:1" />
    <path
       id="path5187"
       d="m 33,859.36217 v -19 c 0,-6.20036 8.799642,-11 15,-11 6.200358,0 15,4.79964 15,11 v 19 h -3 v -18.00002 c 0,-5.27046 -7,-9 -12,-9 -5,0 -12,3.72954 -12,9 v 18.00002 z"
       style="fill:#512f15;fill-opacity:1;fill-rule:evenodd;stroke:none;stroke-width:1px;stroke-linecap:butt;stroke-linejoin:miter;stroke-opacity:1" />
    <path
       id="path5189"
       d="m 38,859.36217 v -17.00001 c 0,-5.18545 5.731251,-8 10,-8 4.268749,0 10,2.81454 10,8 v 17.00001 z"
       style="fill:#512f15;fill-opacity:1;fill-rule:evenodd;stroke:none;stroke-width:1px;stroke-linecap:butt;stroke-linejoin:miter;stroke-opacity:1" />
    <path
       id="path5187-7"
       d="m 65,859.36217 v -19 c 0,-6.20036 8.799642,-11 15,-11 6.200358,0 15,4.79964 15,11 v 19 h -3 v -18.00002 c 0,-5.27046 -7.000002,-8.99999 -12,-8.99999 -4.999998,0 -12,3.72953 -12,8.99999 v 18.00002 z"
       style="fill:#512f15;fill-opacity:1;fill-rule:evenodd;stroke:none;stroke-width:1px;stroke-linecap:butt;stroke-linejoin:miter;stroke-opacity:1" />
    <path
       id="path5224"
       d="m 107,789.36217 -4,-14"
       style="fill:none;fill-opacity:1;fill-rule:evenodd;stroke:#1f5520;stroke-width:3;stroke-linecap:butt;stroke-linejoin:miter;stroke-miterlimit:4;stroke-dasharray:none;stroke-opacity:1" />
    <path
       id="path5224-2"
       d="m 117,789.36217 4,-14"
       style="fill:none;fill-opacity:1;fill-rule:evenodd;stroke:#1f5520;stroke-width:3;stroke-linecap:butt;stroke-linejoin:miter;stroke-miterlimit:4;stroke-dasharray:none;stroke-opacity:1" />
    <path
       id="path5224-2-9"
       d="m 112,788.36217 v -15"
       style="fill:none;fill-opacity:1;fill-rule:evenodd;stroke:#1f5520;stroke-width:3;stroke-linecap:butt;stroke-linejoin:miter;stroke-miterlimit:4;stroke-dasharray:none;stroke-opacity:1" />
    <path
       id="rect5256"
       d="m 33,861.36216 v 30 h 30.074074 v -30 z m 2.074074,2 H 61 v 26 H 35.074074 Z"
       style="fill:#646464;fill-opacity:1;fill-rule:evenodd;stroke:none;stroke-width:3;stroke-linecap:butt;stroke-miterlimit:4;stroke-dasharray:none;stroke-opacity:1" />
    <path
       id="rect5261"
       d="m 37,867.36218 h 4 v 20.00003 h -4 z"
       style="fill:#646464;fill-opacity:1;fill-rule:evenodd;stroke:none;stroke-width:3;stroke-linecap:butt;stroke-miterlimit:4;stroke-dasharray:none;stroke-opacity:1" />
    <path
       id="rect5263"
       d="m 43,871.36218 h 4 v 16.00002 h -4 z"
       style="fill:#5a5a5a;fill-opacity:1;fill-rule:evenodd;stroke:none;stroke-width:3;stroke-linecap:butt;stroke-miterlimit:4;stroke-dasharray:none;stroke-opacity:1" />
    <path
       id="rect5263-7"
       d="m 49,875.36218 h 4 v 12.00002 h -4 z"
       style="fill:#505050;fill-opacity:1;fill-rule:evenodd;stroke:none;stroke-width:3;stroke-linecap:butt;stroke-miterlimit:4;stroke-dasharray:none;stroke-opacity:1" />
    <path
       id="rect5263-7-8"
       d="m 55,879.36218 h 4 v 8.00002 h -4 z"
       style="fill:#464646;fill-opacity:1;fill-rule:evenodd;stroke:none;stroke-width:3;stroke-linecap:butt;stroke-miterlimit:4;stroke-dasharray:none;stroke-opacity:1" />
    <path
       id="rect5261-3"
       d="m 3,862.36218 h 5 v 10.99999 H 3 Z"
       style="fill:#646464;fill-opacity:1;fill-rule:evenodd;stroke:none;stroke-width:3;stroke-linecap:butt;stroke-miterlimit:4;stroke-dasharray:none;stroke-opacity:1" />
    <path
       id="rect5261-3-6"
       d="m 10,866.36218 h 5 v 10.99999 h -5 z"
       style="fill:#646464;fill-opacity:1;fill-rule:evenodd;stroke:none;stroke-width:3;stroke-linecap:butt;stroke-miterlimit:4;stroke-dasharray:none;stroke-opacity:1" />
    <path
       id="rect5261-3-8"
       d="m 17,870.36218 h 5 v 10.99999 h -5 z"
       style="fill:#646464;fill-opacity:1;fill-rule:evenodd;stroke:none;stroke-width:3;stroke-linecap:butt;stroke-miterlimit:4;stroke-dasharray:none;stroke-opacity:1" />
    <path
       id="rect5261-3-4"
       d="m 24,874.36218 h 5 v 10.99999 h -5 z"
       style="fill:#646464;fill-opacity:1;fill-rule:evenodd;stroke:none;stroke-width:3;stroke-linecap:butt;stroke-miterlimit:4;stroke-dasharray:none;stroke-opacity:1" />
    <path
       id="path5365"
       d="m 29,887.36217 v 4 H 3 v -16 h 5 v 4 h 7 v 4 h 7 v 4 z"
       style="fill:#464646;fill-opacity:1;fill-rule:evenodd;stroke:none;stroke-width:1px;stroke-linecap:butt;stroke-linejoin:miter;stroke-opacity:1" />
    <g
       id="text4251-3"
       style="font-style:normal;font-variant:normal;font-weight:bold;font-stretch:normal;line-height:0%;font-family:sans-serif;-inkscape-font-specification:'sans-serif, Bold';text-align:start;letter-spacing:0px;word-spacing:0px;writing-mode:lr-tb;text-anchor:start;fill:#fff934;fill-opacity:1;stroke:none;stroke-width:1px;stroke-linecap:butt;stroke-linejoin:miter;stroke-opacity:0.37724556"
       aria-label="$">
      <path
         id="path92"
         style="font-size:27.5px;line-height:1.25"
         d="m 112.90698,761.86212 h -2.17529 l -0.0134,-4.04175 q -1.67847,-0.0671 -3.24951,-0.37597 -1.57104,-0.30884 -3.06152,-0.85938 v -3.51806 q 1.54419,0.79223 3.11523,1.22192 1.58447,0.41626 3.20923,0.46997 v -4.17603 l -0.44312,-0.0806 q -3.20922,-0.56397 -4.56543,-1.77246 -1.34277,-1.2085 -1.34277,-3.47779 0,-2.40356 1.63818,-3.74633 1.65162,-1.3562 4.69971,-1.47705 l 0.0134,-3.10181 h 2.17529 v 3.04809 q 1.34278,0.10743 2.68555,0.3357 1.34277,0.22827 2.69897,0.59082 v 3.41064 q -1.34277,-0.56396 -2.68554,-0.8728 -1.34278,-0.32227 -2.69898,-0.3894 v 3.85376 l 0.42969,0.0806 q 3.41064,0.53711 4.78027,1.79932 1.38306,1.24878 1.38306,3.70605 0,2.47071 -1.63818,3.80005 -1.63819,1.31592 -4.95484,1.50391 z m -2.17529,-15.26733 v -3.50464 q -0.95337,0.0537 -1.53076,0.52368 -0.56397,0.45654 -0.56397,1.16821 0,0.79224 0.52368,1.24878 0.52369,0.44312 1.57105,0.56397 z m 2.17529,4.37744 v 3.73291 q 1.16822,-0.0134 1.74561,-0.45654 0.59082,-0.44312 0.59082,-1.32935 0,-0.91309 -0.53711,-1.3562 -0.53711,-0.45654 -1.79932,-0.59082 z" />
    </g>
    <g
       id="text4251-36"
       style="font-style:normal;font-variant:normal;font-weight:bold;font-stretch:normal;line-height:0%;font-family:sans-serif;-inkscape-font-specification:'sans-serif, Bold';text-align:start;letter-spacing:0px;word-spacing:0px;writing-mode:lr-tb;text-anchor:start;fill:#2365b3;fill-opacity:1;stroke:none;stroke-width:1px;stroke-linecap:butt;stroke-linejoin:miter;stroke-opacity:0.37724556"
       aria-label="g">
      <path
         id="path95"
         style="font-size:30px;line-height:1.25;fill:#2365b3;fill-opacity:1"
         d="m 51.726562,753.72791 q -1.083984,1.43554 -2.387695,2.10937 -1.303711,0.67383 -3.017578,0.67383 -3.00293,0 -4.96582,-2.3584 -1.962891,-2.37305 -1.962891,-6.03516 0,-3.67675 1.962891,-6.0205 1.96289,-2.3584 4.96582,-2.3584 1.713867,0 3.017578,0.67383 1.303711,0.67382 2.387695,2.12402 v -2.43164 H 57 v 14.75097 q 0,3.95508 -2.504883,6.03516 -2.490234,2.09473 -7.236328,2.09473 -1.538086,0 -2.973633,-0.23438 -1.435547,-0.23437 -2.885742,-0.71777 v -4.08691 q 1.376953,0.79101 2.695313,1.17187 1.318359,0.39551 2.651367,0.39551 2.578125,0 3.779297,-1.12793 1.201171,-1.12793 1.201171,-3.53028 z m -3.457031,-10.20997 q -1.625976,0 -2.534179,1.20118 -0.908204,1.20117 -0.908204,3.39843 0,2.25586 0.878907,3.42774 0.878906,1.15722 2.563476,1.15722 1.640625,0 2.548828,-1.20117 0.908203,-1.20117 0.908203,-3.38379 0,-2.19726 -0.908203,-3.39843 -0.908203,-1.20118 -2.548828,-1.20118 z" />
    </g>
    <path
       id="rect4236"
       d="m 19,904.36216 -5,5 -4,-4 -3,3 4,4 -1,1 -5,-5 -3,3 5,5 -1,1 3,3 13,-13 z"
       style="opacity:1;fill:#969696;fill-opacity:1;fill-rule:evenodd;stroke:none;stroke-width:4;stroke-linecap:butt;stroke-miterlimit:4;stroke-dasharray:none;stroke-opacity:1" />
    <path
       id="path4284"
       transform="translate(0,732.36216)"
       d="m 47,161 -2,2 2,2 v 3 h -9 v 5 h 2 l 2,-2 h 13 l 1,1 h 2 v -4 h -8 v -3 l 2,-2 -2,-2 z m -3,11 v 14 l 4,4 h 1 l 4,-4 v -14 h -4 v 13.5 L 48.5,186 48,185.5 V 172 Z"
       style="fill:#969696;fill-opacity:1;fill-rule:evenodd;stroke:none;stroke-width:1px;stroke-linecap:butt;stroke-linejoin:miter;stroke-opacity:1" />
    <path
       id="path4309"
       d="m 31,901.86218 a 6.5,6.5000043 0 0 1 -6.5,6.50001 6.5,6.5000043 0 0 1 -6.5,-6.50001 6.5,6.5000043 0 0 1 6.5,-6.5 6.5,6.5000043 0 0 1 6.5,6.5 z"
       style="opacity:1;fill:#969696;fill-opacity:1;fill-rule:evenodd;stroke:none;stroke-width:4;stroke-linecap:butt;stroke-miterlimit:4;stroke-dasharray:none;stroke-opacity:1" />
    <path
       id="path4318"
       d="m 27.375,901.86218 a 2.875,2.9999843 0 0 1 -2.875,2.99999 2.875,2.9999843 0 0 1 -2.875,-2.99999 2.875,2.9999843 0 0 1 2.875,-2.99998 2.875,2.9999843 0 0 1 2.875,2.99998 z"
       style="opacity:1;fill:#000000;fill-opacity:1;fill-rule:evenodd;stroke:none;stroke-width:4;stroke-linecap:butt;stroke-miterlimit:4;stroke-dasharray:none;stroke-opacity:1" />
    <path
       id="path864"
       transform="translate(0,732.36216)"
       d="m 80,162 c -4.772608,0 -14,3 -14,3 0,0 -0.894621,9.08857 1,13 2.570812,5.30742 13,12 13,12 0,0 10.429188,-6.69258 13,-12 1.894624,-3.91143 1,-13 1,-13 0,0 -9.227393,-3 -14,-3 z m 0,2 c 4.090602,0 12,2.5 12,2.5 0,0 0.623882,7.14751 -1,10.5 -2.203443,4.54899 -11,10 -11,10 0,0 -8.796557,-5.45101 -11,-10 -1.62388,-3.35249 -1,-10.5 -1,-10.5 0,0 7.909398,-2.5 12,-2.5 z"
       style="fill:#969696;fill-opacity:1;stroke:none;stroke-width:1px;stroke-linecap:butt;stroke-linejoin:miter;stroke-opacity:1" />
    <path
       id="path864-1"
       d="m 69,899.36216 c 0,0 7.25016,-2 11,-2 3.74984,0 11,2 11,2 0,0 0.4886,6.92679 -1,10 -2.01989,4.17004 -10,9 -10,9 0,0 -7.980113,-4.82997 -10,-9.00001 -1.488604,-3.07321 -1,-10 -1,-10"
       style="fill:#969696;fill-opacity:1;stroke:none;stroke-width:0.78570002px;stroke-linecap:butt;stroke-linejoin:miter;stroke-opacity:1" />
    <path
       id="path5098-1"
       d="m 98,866.36216 c 0,0 4.5733,-2 7,-2 2.4267,0 7,2 7,2 0,0 4.5733,2 7,2 2.4267,0 7,-2 7,-2 v 4 c 0,0 -4.5733,2 -7,2 -2.4267,0 -7,-2 -7,-2 0,0 -4.5733,-2 -7,-2 -2.4267,0 -7,2 -7,2 z"
       style="fill:#e33030;fill-opacity:1;fill-rule:evenodd;stroke:none;stroke-width:1px;stroke-linecap:butt;stroke-linejoin:miter;stroke-opacity:1" />
    <path
       id="path5098-6-4"
       d="m 98,874.36216 c 0,0 4.5733,-2 7,-2 2.4267,0 7,2 7,2 0,0 4.5733,2 7,2 2.4267,0 7,-2 7,-2 v 4 c 0,0 -4.5733,2 -7,2 -2.4267,0 -7,-2 -7,-2 0,0 -4.5733,-2 -7,-2 -2.4267,0 -7,2 -7,2 z"
       style="fill:#ffbb0f;fill-opacity:1;fill-rule:evenodd;stroke:none;stroke-width:1px;stroke-linecap:butt;stroke-linejoin:miter;stroke-opacity:1" />
    <path
       id="path5098-7-9"
       d="m 98,882.36216 c 0,0 4.5733,-2 7,-2 2.4267,0 7,2 7,2 0,0 4.5733,2 7,2 2.4267,0 7,-2 7,-2 v 4 c 0,0 -4.5733,2 -7,2 -2.4267,0 -7,-2 -7,-2 0,0 -4.5733,-2 -7,-2 -2.4267,0 -7,2 -7,2 z"
       style="fill:#e33030;fill-opacity:1;fill-rule:evenodd;stroke:none;stroke-width:1px;stroke-linecap:butt;stroke-linejoin:miter;stroke-opacity:1" />
    <path
       id="rect7083"
       d="m 0,732.36218 h 32 v 32 H 0 Z"
       style="fill:#000000;fill-opacity:1;stroke:none;stroke-width:2;stroke-linecap:square;stroke-linejoin:miter;stroke-miterlimit:4;stroke-dasharray:none;stroke-dashoffset:0;stroke-opacity:1;paint-order:stroke fill markers" />
    <g
       style="fill:none;fill-opacity:1;stroke:#ffffff;stroke-width:2;stroke-miterlimit:4;stroke-dasharray:none;stroke-dashoffset:0;stroke-opacity:1"
       id="g5604">
      <path
         id="path768"
         d="m 27.75,748.11212 a 11.75,11.75 0 0 1 -11.75,11.75 11.75,11.75 0 0 1 -11.75,-11.75 11.75,11.75 0 0 1 11.75,-11.75 11.75,11.75 0 0 1 11.75,11.75 z"
         style="fill:none;fill-opacity:1;stroke:#ffffff;stroke-width:2;stroke-miterlimit:4;stroke-dasharray:none;stroke-dashoffset:0;stroke-opacity:1" />
      <path
         id="path5278"
         d="m 14.5,744.36218 a 2.75,3 0 0 1 -2.75,3 2.75,3 0 0 1 -2.75,-3 2.75,3 0 0 1 2.75,-3 2.75,3 0 0 1 2.75,3 z"
         style="fill:none;fill-opacity:1;stroke:#ffffff;stroke-width:2;stroke-miterlimit:4;stroke-dasharray:none;stroke-dashoffset:0;stroke-opacity:1" />
      <path
         id="path5278-3"
         d="m 23.5,744.36212 a 2.75,3 0 0 1 -2.75,3 2.75,3 0 0 1 -2.75,-3 2.75,3 0 0 1 2.75,-3 2.75,3 0 0 1 2.75,3 z"
         style="fill:none;fill-opacity:1;stroke:#ffffff;stroke-width:2;stroke-miterlimit:4;stroke-dasharray:none;stroke-dashoffset:0;stroke-opacity:1" />
      <path
         style="fill:none;fill-opacity:1;stroke:#ffffff;stroke-width:2;stroke-linecap:square;stroke-linejoin:miter;stroke-miterlimit:4;stroke-dasharray:none;stroke-dashoffset:0;stroke-opacity:1;paint-order:stroke fill markers"
         d="M 22.8125,19.888672 A 8.5,2.75 0 0 1 16,21 8.5,2.75 0 0 1 9.6191406,20.0625 6.75,3.7500002 0 0 0 9.5,20.75 6.75,3.7500002 0 0 0 16.25,24.5 6.75,3.7500002 0 0 0 23,20.75 6.75,3.7500002 0 0 0 22.8125,19.888672 Z"
         transform="translate(0,732.36216)"
         id="path5295" />
    </g>
  </g>
  <g
     style="opacity:1"
     id="layer2" />
</svg>
